<?xml version="1.0" encoding="UTF-8" standalone="no"?>
<!DOCTYPE svg PUBLIC "-//W3C//DTD SVG 1.1//EN" "http://www.w3.org/Graphics/SVG/1.1/DTD/svg11.dtd">
<svg version="1.1" xmlns="http://www.w3.org/2000/svg" xmlns:xlink="http://www.w3.org/1999/xlink" preserveAspectRatio="xMidYMid meet" viewBox="0 0 640 640" width="640" height="640"><defs><path d="M515.56 358.03C424.5 517.09 373.92 605.46 363.8 623.13C177.05 623.13 73.3 623.13 52.55 623.13C134.73 480.9 180.39 401.91 189.5 386.12C110.36 362.89 52.55 289.71 52.55 203.05C52.55 150.37 73.88 102.69 108.39 68.19C142.93 33.69 190.6 12.32 243.25 12.32C265.91 12.32 379.06 12.32 582.74 12.32C582.74 22.86 582.74 107.22 582.74 117.76C529.71 117.76 500.3 117.76 494.41 117.76C465.68 84.55 426.77 83.79 393.07 114.73C391.78 115.87 390.26 116.89 388.55 117.76C379.17 117.76 303.98 117.76 294.57 117.76C291.95 116.59 289.48 115.03 287.55 113.28C258.89 87.82 224.35 85.23 197.36 108.16C190.72 113.78 184.38 120.38 179.67 127.63C146.19 179.33 127.29 235.54 123.72 296.12C123.3 303.26 123.11 310.47 123.11 317.76C123.15 333.09 124.78 350.52 140.84 358.45C157.24 366.57 172.72 357.84 184.79 347.48C204.15 330.93 221.42 311.95 240.14 294.57C240.63 294.07 241.16 293.62 241.73 293.16C242 292.97 242.26 292.75 242.57 292.52C243.55 291.8 244.62 291.11 245.72 290.47C246.48 290.05 247.23 289.67 247.99 289.29C248.79 288.95 249.55 288.61 250.35 288.34C268.45 288.34 413.18 288.34 431.29 288.34C431.67 288.46 432.05 288.61 432.47 288.76C432.81 288.91 433.19 289.03 433.57 289.22C435.43 289.98 437.25 291 438.81 292.18C439.15 292.4 439.45 292.63 439.76 292.86C440.06 293.09 440.29 293.32 440.55 293.58C440.89 293.85 441.2 294.15 441.5 294.45C441.73 294.68 441.96 294.95 442.18 295.18C461.88 317.68 481.39 340.31 508.27 354.62C510.77 355.95 513.2 357.08 515.56 358.03" id="a61W0Elbd"></path><path d="M416.94 623.13L582.74 333.51L582.74 623.13L416.94 623.13Z" id="j3otmhzB6Y"></path><path d="M531.77 329.19C521.22 347.64 515.37 357.89 514.2 359.94C511.84 358.99 509.41 357.85 506.91 356.52C480.03 342.21 460.52 319.59 440.82 297.08C440.6 296.85 440.37 296.59 440.14 296.36C439.84 296.06 439.53 295.75 439.19 295.45C438.93 295.22 438.66 294.99 438.4 294.76C438.09 294.54 437.79 294.31 437.45 294.08C435.89 292.9 434.07 291.88 432.21 291.12C431.83 290.93 431.45 290.78 431.07 290.67C430.69 290.51 430.31 290.36 429.93 290.25C411.82 290.25 267.09 290.25 248.99 290.25C248.19 290.51 247.43 290.86 246.63 291.2C245.87 291.54 245.12 291.96 244.36 292.37C243.26 293.02 242.19 293.7 241.21 294.42C240.9 294.65 240.64 294.88 240.37 295.07C239.8 295.52 239.27 295.98 238.74 296.47C220.06 313.86 202.79 332.84 183.43 349.39C171.36 359.75 155.88 368.48 139.48 360.35C123.42 352.42 121.79 335 121.75 319.66C121.75 312.38 121.94 305.17 122.36 298.03C123.65 309.49 127.67 320.46 139.48 326.31C155.88 334.43 171.36 325.7 183.43 315.34C202.79 298.79 220.06 279.81 238.74 262.46C242.8 258.71 249.02 255.29 254.3 255.18C282.43 254.45 310.59 254.87 338.72 254.87C367.26 254.87 395.84 254.42 424.35 255.18C430.01 255.37 437.07 258.78 440.82 263.03C460.52 285.58 480.03 308.2 506.91 322.51C516.28 327.52 524.71 329.72 531.77 329.19" id="a5q5xXkNj"></path></defs><g><g><g><use xlink:href="#a61W0Elbd" opacity="1" fill="#ffffff" fill-opacity="1"></use><g><use xlink:href="#a61W0Elbd" opacity="1" fill-opacity="0" stroke="#ffffff" stroke-width="0" stroke-opacity="1"></use></g></g><g><use xlink:href="#j3otmhzB6Y" opacity="1" fill="#ffffff" fill-opacity="1"></use><g><use xlink:href="#j3otmhzB6Y" opacity="1" fill-opacity="0" stroke="#ffffff" stroke-width="1" stroke-opacity="1"></use></g></g><g><use xlink:href="#a5q5xXkNj" opacity="1" fill="#ffffff" fill-opacity="1"></use><g><use xlink:href="#a5q5xXkNj" opacity="1" fill-opacity="0" stroke="#ffffff" stroke-width="0" stroke-opacity="1"></use></g></g></g></g></svg>